<svg width="60" height="60" viewBox="0 0 60 60" fill="none" xmlns="http://www.w3.org/2000/svg">
<path d="M8.11947 12.1738C8.11947 10.487 9.48696 9.11947 11.1738 9.11947H47.8262C49.513 9.11947 50.8805 10.487 50.8805 12.1738V48.8262C50.8805 50.513 49.5131 51.8805 47.8262 51.8805H11.1738C9.48696 51.8805 8.11947 50.513 8.11947 48.8262V12.1738Z" fill="url(#paint0_linear_2008_27)"/>
<path d="M13.5912 7.26459C14.0278 5.6352 15.7026 4.66824 17.332 5.10483L52.7354 14.5912C54.3648 15.0278 55.3318 16.7026 54.8952 18.332L45.4088 53.7354C44.9723 55.3648 43.2974 56.3318 41.668 55.8952L6.26459 46.4088C4.6352 45.9723 3.66824 44.2974 4.10483 42.668L13.5912 7.26459Z" fill="url(#paint1_linear_2008_27)"/>
<defs>
<linearGradient id="paint0_linear_2008_27" x1="29.5" y1="5" x2="29.5" y2="56" gradientUnits="userSpaceOnUse">
<stop stop-color="#63C963"/>
<stop offset="1" stop-color="#027E02"/>
</linearGradient>
<linearGradient id="paint1_linear_2008_27" x1="15.2339" y1="5.35739" x2="42.9839" y2="56.7228" gradientUnits="userSpaceOnUse">
<stop stop-color="#B8EF5F"/>
<stop offset="1" stop-color="#4C7D00"/>
</linearGradient>
</defs>
</svg>
